<svg width="246" height="246" viewBox="0 0 246 246" fill="none" xmlns="http://www.w3.org/2000/svg">
<rect width="246" height="246" fill="#161616"/>
<rect x="38" y="38" width="169" height="169" rx="12" fill="url(#paint0_linear_265_7)"/>
<rect x="43" y="43" width="160" height="160" rx="12" fill="#121212"/>
<path d="M39.517 212.545H44.0682L48.875 224.273H49.0795L53.8864 212.545H58.4375V230H54.858V218.639H54.7131L50.196 229.915H47.7585L43.2415 218.597H43.0966V230H39.517V212.545ZM65.1683 212.545V230H61.478V212.545H65.1683ZM74.392 230H68.2045V212.545H74.4432C76.1989 212.545 77.7102 212.895 78.9773 213.594C80.2443 214.287 81.2188 215.284 81.9006 216.585C82.5881 217.886 82.9318 219.443 82.9318 221.256C82.9318 223.074 82.5881 224.636 81.9006 225.943C81.2188 227.25 80.2386 228.253 78.9602 228.952C77.6875 229.651 76.1648 230 74.392 230ZM71.8949 226.838H74.2386C75.3295 226.838 76.2472 226.645 76.9915 226.259C77.7415 225.866 78.304 225.261 78.679 224.443C79.0597 223.619 79.25 222.557 79.25 221.256C79.25 219.966 79.0597 218.912 78.679 218.094C78.304 217.276 77.7443 216.673 77 216.287C76.2557 215.901 75.3381 215.707 74.2472 215.707H71.8949V226.838ZM89.3558 212.545V230H85.6655V212.545H89.3558ZM92.392 230V212.545H99.2784C100.602 212.545 101.73 212.798 102.662 213.304C103.594 213.804 104.304 214.5 104.793 215.392C105.287 216.278 105.534 217.301 105.534 218.46C105.534 219.619 105.284 220.642 104.784 221.528C104.284 222.415 103.56 223.105 102.611 223.599C101.668 224.094 100.526 224.341 99.1847 224.341H94.7955V221.384H98.5881C99.2983 221.384 99.8835 221.261 100.344 221.017C100.81 220.767 101.156 220.423 101.384 219.986C101.616 219.543 101.733 219.034 101.733 218.46C101.733 217.881 101.616 217.375 101.384 216.943C101.156 216.506 100.81 216.168 100.344 215.929C99.8778 215.685 99.2869 215.562 98.571 215.562H96.0824V230H92.392ZM108.924 230H104.969L110.995 212.545H115.751L121.768 230H117.813L113.441 216.534H113.305L108.924 230ZM108.677 223.139H118.018V226.02H108.677V223.139ZM130.056 230H123.869V212.545H130.107C131.863 212.545 133.374 212.895 134.641 213.594C135.908 214.287 136.883 215.284 137.565 216.585C138.252 217.886 138.596 219.443 138.596 221.256C138.596 223.074 138.252 224.636 137.565 225.943C136.883 227.25 135.903 228.253 134.624 228.952C133.352 229.651 131.829 230 130.056 230ZM127.559 226.838H129.903C130.994 226.838 131.911 226.645 132.656 226.259C133.406 225.866 133.968 225.261 134.343 224.443C134.724 223.619 134.914 222.557 134.914 221.256C134.914 219.966 134.724 218.912 134.343 218.094C133.968 217.276 133.408 216.673 132.664 216.287C131.92 215.901 131.002 215.707 129.911 215.707H127.559V226.838ZM148.821 212.545V230H145.131V216.048H145.028L141.031 218.554V215.281L145.352 212.545H148.821ZM159.668 230.239C158.771 230.233 157.904 230.082 157.069 229.787C156.239 229.491 155.495 229.011 154.836 228.347C154.177 227.682 153.654 226.801 153.268 225.705C152.887 224.608 152.697 223.261 152.697 221.665C152.702 220.199 152.87 218.889 153.2 217.736C153.535 216.577 154.012 215.594 154.631 214.787C155.256 213.98 156.004 213.366 156.873 212.946C157.742 212.52 158.717 212.307 159.796 212.307C160.961 212.307 161.989 212.534 162.881 212.989C163.773 213.437 164.489 214.048 165.029 214.821C165.575 215.594 165.904 216.46 166.018 217.42H162.379C162.237 216.812 161.938 216.335 161.484 215.989C161.029 215.642 160.467 215.469 159.796 215.469C158.66 215.469 157.796 215.963 157.205 216.952C156.62 217.94 156.322 219.284 156.31 220.983H156.43C156.691 220.466 157.043 220.026 157.487 219.662C157.935 219.293 158.444 219.011 159.012 218.818C159.586 218.619 160.191 218.52 160.827 218.52C161.862 218.52 162.782 218.764 163.589 219.253C164.396 219.736 165.032 220.401 165.498 221.247C165.964 222.094 166.197 223.062 166.197 224.153C166.197 225.335 165.921 226.386 165.37 227.307C164.825 228.227 164.06 228.949 163.077 229.472C162.1 229.989 160.964 230.244 159.668 230.239ZM159.651 227.341C160.219 227.341 160.728 227.205 161.177 226.932C161.626 226.659 161.978 226.29 162.234 225.824C162.489 225.358 162.617 224.835 162.617 224.256C162.617 223.676 162.489 223.156 162.234 222.696C161.984 222.236 161.637 221.869 161.194 221.597C160.751 221.324 160.245 221.188 159.677 221.188C159.251 221.188 158.856 221.267 158.492 221.426C158.134 221.585 157.819 221.807 157.546 222.091C157.279 222.375 157.069 222.705 156.915 223.08C156.762 223.449 156.685 223.844 156.685 224.264C156.685 224.827 156.813 225.341 157.069 225.807C157.33 226.273 157.683 226.645 158.126 226.923C158.575 227.202 159.083 227.341 159.651 227.341Z" fill="white"/>
<defs>
<linearGradient id="paint0_linear_265_7" x1="38" y1="122.5" x2="207" y2="122.5" gradientUnits="userSpaceOnUse">
<stop stop-color="#FC2727"/>
<stop offset="1" stop-color="#E35C5C"/>
</linearGradient>
</defs>
</svg>
